<?xml version="1.0" encoding="UTF-8"?>
<svg data-bbox="-0.017 0 132.491 133.71" viewBox="0 0 132.5 133.74" xmlns="http://www.w3.org/2000/svg" data-type="color">
    <g>
        <path d="M97.72 124.11c.15-.08.31-.16.46-.25.95-.6 1.78-1.34 2.56-2.15 1.77-1.85 3.26-3.93 4.66-6.08 1.84-2.82 3.49-5.76 5-8.77.16-.32.36-.6.61-.85 4.05-4.11 7.61-8.58 10.43-13.63 2.34-4.18 4.07-8.59 5.04-13.28.44-2.12.7-4.25.81-6.41.12-2.39 0-4.77-.32-7.14-.36-2.64-.99-5.23-2.02-7.7a.27.27 0 0 1 0-.22c.57.51 1.14 1.02 1.71 1.52.57.51 1.14 1.02 1.79 1.49-.04-.24-.07-.49-.12-.73-.63-3.41-1.76-6.65-3.23-9.77-2.04-4.31-4.65-8.26-7.61-11.99-4.32-5.44-9.22-10.3-14.62-14.67-.09-.08-.19-.15-.29-.23-.02-.02-.05-.03-.16-.07.08.11.12.17.16.22 1.68 1.72 3.03 3.68 4.26 5.74 2.33 3.9 4.21 8.01 5.83 12.25.03.07.05.14.04.22-5.34-8.7-12.28-15.88-20.58-21.76-3.64-2.58-7.46-4.85-11.56-6.63.07.05.13.11.2.16 5.77 3.52 10.66 8.05 14.99 13.2 2.69 3.2 5.13 6.59 7.25 10.2.08.13.15.26.17.44-.4-.51-.8-1.03-1.21-1.53-.43-.52-.86-1.04-1.3-1.55q-.66-.765-1.35-1.5c-.46-.49-.92-.98-1.4-1.46s-.96-.94-1.46-1.4q-.735-.69-1.5-1.35c-.51-.44-1.02-.88-1.55-1.3-.52-.42-1.05-.84-1.59-1.25s-1.08-.8-1.63-1.19c-.56-.4-1.13-.79-1.7-1.17-.56-.37-1.13-.73-1.7-1.09-.57-.35-1.15-.7-1.74-1.03-.58-.33-1.17-.66-1.77-.98-.59-.32-1.19-.62-1.8-.92-.6-.3-1.21-.59-1.82-.86-.61-.28-1.23-.55-1.85-.81a61 61 0 0 0-3.77-1.44c-.64-.22-1.28-.42-1.92-.62-.64-.19-1.28-.37-1.95-.51 7.98 4.59 14.94 10.4 21.06 17.25l-.06.09c-.14-.09-.28-.18-.42-.28-3.09-2.17-6.25-4.25-9.49-6.2-5.35-3.22-10.88-6.1-16.72-8.36-3.47-1.34-7.01-2.44-10.68-3.13-2.32-.44-4.66-.71-7.02-.67-1.29.02-2.57.12-3.82.43-.11.03-.22.07-.37.12.08.07.12.12.17.15 1.52 1.01 2.75 2.33 3.84 3.78 1.78 2.38 3.13 5 4.25 7.74.36.89.69 1.79 1.03 2.69l-.09.06c-.09-.1-.18-.19-.27-.3-2.65-3.07-5.57-5.85-8.87-8.23-2.03-1.46-4.18-2.71-6.54-3.57-1.12-.41-2.28-.7-3.46-.86-.18-.02-.36-.02-.59-.04.06.55.14 1.06.18 1.57.11 1.24.08 2.48-.25 3.69-.66 2.44-2.29 3.83-4.73 4.31-1.4.28-2.8.23-4.2.05-.49-.06-.97-.15-1.45-.24-.14-.03-.29-.07-.43-.13 1.54 0 3.05-.15 4.53-.6.75-.23 1.47-.53 2.11-.98 1.55-1.07 2.14-2.57 1.96-4.41-.1-.98-.4-1.91-.8-2.93.11-.06.26-.13.41-.21-.03-.04-.05-.09-.08-.13-.55.07-1.1.15-1.68.22.07.52.16.99.21 1.47.1.95.1 1.89-.13 2.83-.4 1.58-1.38 2.56-2.99 2.87-1.36.27-2.71.24-4.03-.2a6.33 6.33 0 0 1-2.92-1.98c-.09-.1-.18-.21-.3-.35a29 29 0 0 0-3.59 3.1c-.12-.05-.23-.09-.33-.15-1.58-.9-3.29-1.39-5.07-1.64-2.49-.34-4.97-.2-7.55.27.17-.18.27-.29.38-.4 3.73-3.7 7.9-6.81 12.46-9.4 5.36-3.05 11.06-5.26 17.03-6.79 2.92-.75 5.88-1.32 8.86-1.73 4.83-.67 9.69-.92 14.56-.73 19.39.78 36.97 6.85 52.71 18.2 4.37 3.15 8.44 6.65 12.05 10.66 4.13 4.57 7.47 9.64 9.81 15.36 1.5 3.65 2.52 7.44 3.09 11.34.45 3.05.61 6.12.5 9.2-.2 5.72-1.26 11.3-3.04 16.74-1.26 3.85-2.81 7.57-4.83 11.09-.08.14-.14.3-.25.46 0-1.12.01-2.25-.06-3.48-.1.12-.15.15-.17.19-.9 2-2.15 3.77-3.48 5.49-2.13 2.77-4.48 5.35-6.91 7.86-.61.63-1.22 1.24-1.85 1.86-.16.16-.26.33-.31.55-.69 3.34-2.12 6.37-3.94 9.23-1.78 2.8-3.89 5.34-6.19 7.72a66.7 66.7 0 0 1-8.66 7.52c-.17.12-.35.24-.58.41 0-.23-.01-.38 0-.54.18-2.06.15-4.13-.05-6.19-.37-3.8-1.3-7.46-2.69-11.01-1.89-4.84-4.49-9.27-7.59-13.42a78.6 78.6 0 0 0-13.55-14.09l-.21-.18a.3.3 0 0 1-.05-.07c.31.05 28.07 13.65 28.8 14.19-5.58-2.25-11.16-4.49-16.73-6.74-.02.03-.03.07-.05.1l15.09 8.01c-.01.03-.02.05-.03.08-3.65-1.26-7.3-2.51-10.96-3.77-.01.02-.02.04-.03.07.12.09.23.18.36.27l8.73 6.09c.23.16.47.26.75.32 2.75.57 5.51 1.14 8.26 1.72.15.03.29.07.48.12-2.35 3.69-4.68 7.35-7.01 11.02.01.02.03.04.04.06.1-.05.2-.09.3-.15 1.41-.89 2.63-2 3.78-3.19 2.41-2.46 4.52-5.15 6.5-7.95.1-.13.2-.26.37-.36-.05.17-.1.34-.16.51-.56 1.61-1.31 3.13-2.12 4.62-1.94 3.6-4.17 7.02-6.5 10.38-.09.13-.18.26-.27.4l.07.08ZM19.19 19.69c-.31.21-.57.39-.86.59.12.15.2.26.29.36 1.75 1.98 4.49 2.04 6.33 1.26.75-.32 1.23-.9 1.44-1.69.33-1.24.04-2.41-.38-3.63-.35.1-.66.2-1 .3.07.2.12.35.17.49.18.52.34 1.05.34 1.61.01 1.09-.47 1.72-1.53 1.98-.74.18-1.49.16-2.24.08-1-.11-1.92-.39-2.56-1.35m.54-.34c.09.12.13.2.19.27.75.83 2.27 1.09 3.26.56.4-.22.56-.55.44-1-.14-.54-.45-.99-.84-1.42-1.05.45-2.04.98-3.05 1.6Z" fill="#a52e29" data-color="1"/>
        <path d="M115.2 85.45c.66-1.07 1.11-2.24 1.46-3.44.35-1.19.56-2.41.74-3.63 0 .88.04 1.77 0 2.64-.13 2.27-.47 4.5-1.08 6.69-.96 3.45-2.5 6.6-4.89 9.3-1.73 1.95-3.77 3.48-6.1 4.64-.08.04-.17.07-.23.1-2.04-.97-4.05-1.94-6.07-2.87-6.33-2.93-12.73-5.67-19.31-7.99-3.11-1.1-6.26-2.1-9.48-2.83-.1-.02-.2-.06-.3-.13.11 0 .21-.02.32-.01 1.94.06 3.87.28 5.8.54 4.08.56 8.09 1.45 12.04 2.62a88 88 0 0 1 15.63 6.28c.14.07.27.14.44.22.13-.11.28-.22.41-.34 3.53-3.3 5.81-7.3 6.63-12.09.62-3.63.2-7.17-.95-10.63-.85-2.57-1.99-5-3.64-7.17-1.36-1.78-2.99-3.24-5.06-4.14-2.82-1.22-5.68-1.19-8.55-.23-.17.06-.35.12-.52.18-.01 0-.03-.01-.08-.04.95-.67 1.87-1.33 2.88-2.04-.26-.11-.45-.19-.63-.26-3.09-1.2-6.26-2.19-9.47-3.03-2.72-.71-5.48-1.29-8.26-1.71-3.68-.56-7.39-.85-11.11-.75-.11 0-.21.02-.32.03.01.44.71 1.72 1.56 2.86.66.88 1.4 1.66 2.47 2.21-.17.02-.26.04-.35.03-1.26-.13-2.53-.23-3.79-.41-3.23-.44-6.42-1.08-9.58-1.89-7.97-2.06-15.53-5.11-22.49-9.55-.79-.5-1.56-1.03-2.33-1.56-.2-.14-.39-.21-.64-.19-2.06.11-4.12.26-6.19.3-1.82.04-3.64-.01-5.46-.08-1.31-.05-2.63-.17-3.93-.31-3.03-.34-6.02-.89-8.84-2.11-1.76-.76-3.31-1.84-4.68-3.18-.43-.42-.79-.89-1.04-1.44-.43-.95-.25-1.8.54-2.48.48-.42 1.03-.71 1.64-.89.45-.14.88-.04 1.31.09.66.2 1.21.57 1.71 1.03.82.75 1.46 1.66 1.94 2.65.47.97 1.21 1.64 2.14 2.13 1.05.55 2.18.88 3.34 1.09 2.14.4 4.31.51 6.49.42 2.42-.11 4.81-.41 7.16-1.04 1.71-.46 3.26-1.2 4.64-2.32 1.87-1.52 3.55-3.19 4.81-5.26.9-1.48 1.52-3.07 1.75-4.79.25-1.86.01-3.67-.66-5.41-.31-.81-.73-1.58-1.11-2.36-.06-.13-.14-.26-.23-.43.09.02.14.02.16.04 1.98 1.59 3.55 3.5 4.43 5.91.98 2.67.74 5.29-.42 7.85-.9 1.98-2.22 3.65-3.73 5.19-.44.45-.9.87-1.41 1.38.17-.03.26-.04.35-.06 3.45-1.11 6.23-3.09 7.97-6.35.75-1.4 1.16-2.92 1.32-4.51.16-1.56.08-3.12-.18-4.66 0-.03 0-.06.01-.13.08.06.15.1.2.16 1.8 2.23 2.74 4.76 2.49 7.65-.14 1.6-.69 3.07-1.5 4.44-1.05 1.77-2.43 3.27-4 4.57-.86.71-1.78 1.35-2.67 2.03-.12.09-.24.18-.44.32.53.11.96.22 1.41.29 2.19.36 4.38.45 6.58.11 1.87-.3 3.62-.91 5.14-2.06 1.98-1.48 3.1-3.51 3.68-5.86.51-2.06.56-4.15.41-6.25-.13-1.89-.45-3.76-.8-5.64.06.1.13.2.18.31 1.29 2.68 2.16 5.48 2.52 8.44.32 2.68.14 5.32-.72 7.88-1.05 3.13-2.98 5.63-5.54 7.66-.38.3-.78.59-1.17.89v.04c1.62 1.57 9.34 4.23 13.02 4.46-.31-1.33-.71-2.62-1.05-3.99.24-.01.45-.03.65-.03l7.07-.03c1.87 0 3.73 0 5.6-.01.13 0 .26-.01.42-.1-1.98-1.44-3.96-2.89-5.95-4.33 0-.03.01-.06.02-.09.15.01.31.01.46.03 4.91.8 9.75 1.91 14.5 3.37 4.32 1.33 8.53 2.93 12.52 5.07 2.39 1.29 4.66 2.76 6.69 4.57.42.38.82.78 1.23 1.17.1.09.19.18.38.23-.05-.32-.09-.65-.16-.97-.34-1.48-1.01-2.82-1.86-4.07-1.38-2.04-3.14-3.71-5.08-5.19-.23-.18-.46-.35-.69-.53 0 0-.01-.03-.04-.08.38-.05.73.04 1.07.1 5.44 1 9.72 3.79 12.77 8.41 1.65 2.51 2.68 5.28 3.33 8.2.76 3.41.94 6.87.84 10.36-.06 2.1-.25 4.18-.53 6.26-.02.18-.03.36-.05.54l.09.02Z" fill="#a72f2a" data-color="2"/>
        <path d="M90.8 6.89c.12-.09.18-.13.25-.17 3.38-2.1 6.89-3.97 10.63-5.35 1.47-.54 2.96-.98 4.51-1.21.48-.07.97-.11 1.44-.16.03.05.04.06.04.07v.04c-.03.03-.06.07-.1.09-1.37 1.03-2.73 2.07-4.1 3.1-.01 0-.01.03-.04.09.38-.1.72-.18 1.06-.27 1.48-.4 2.95-.79 4.42-1.21.34-.1.56-.05.81.2 2.07 2 4 4.14 5.81 6.37 6.11 7.5 11 15.73 14.75 24.64.06.15.12.31.19.51h-.51c-1.79 0-3.58-.01-5.37 0-.35 0-.55-.11-.75-.38-5.57-7.31-11.97-13.79-19.46-19.16-3.65-2.62-7.53-4.85-11.72-6.51-.3-.12-.6-.23-.9-.34s-.6-.22-.97-.36Z" fill="#a72f2a" data-color="2"/>
        <path d="M69.02 56.88c.4 0 .72-.02 1.04 0 4.02.26 8 .81 11.88 1.92 2.23.64 4.37 1.46 6.37 2.65.36.22.56.48.68.9 1.43 4.97 4.02 9.19 8.13 12.41.08.06.15.14.19.29-1.04-.22-2.09-.41-3.12-.66-5.73-1.43-11.02-3.82-15.78-7.34-3.59-2.66-6.62-5.85-9.05-9.6-.11-.16-.21-.33-.35-.57Z" fill="#a72f2a" data-color="2"/>
        <path d="M70.11 38.72c1.11-.92 1.45-2.15 1.67-3.43.34-1.97.32-3.96.14-5.95 0-.09-.02-.18-.02-.27 0-.04.01-.09.03-.19 4.19.47 8.16 1.65 11.88 3.64 4.46 2.39 8.18 5.62 11.07 9.86-.14.03-.22.06-.3.06-2.14.1-4.28.03-6.42-.07-2.02-.1-4.03-.29-6.03-.58-3.91-.56-7.76-1.4-11.46-2.83-.17-.07-.34-.14-.57-.24Z" fill="#a72f2a" data-color="2"/>
        <path d="M1.17 24.41c1-.08 2.01-.18 3.01-.23 1.67-.08 3.33-.06 5 .09 3.42.31 6.73 1.05 9.8 2.67 3.64 1.92 6.23 4.79 7.65 8.67.31.85.52 1.73.51 2.64-.02 1.4-.62 2.47-1.84 3.17-.96.56-2.01.8-3.1.92-1.93.22-3.85.1-5.76-.15-1.82-.23-3.62-.58-5.4-1.03l-.22-.06c-.02 0-.03-.05-.03-.03.89-.24 1.81-.45 2.71-.74.97-.31 1.86-.77 2.62-1.47 1.07-.99 1.37-2.2.98-3.59-.23-.8-.63-1.52-1.11-2.2-1.1-1.57-2.52-2.79-4.09-3.85-2.4-1.62-5.01-2.8-7.73-3.75-.88-.31-1.78-.56-2.66-.84-.11-.04-.23-.07-.34-.11v-.09Z" fill="#a72f2a" data-color="2"/>
    </g>
</svg>
